<mxfile host="app.diagrams.net" modified="2023-09-03T05:42:07.237Z" agent="Mozilla/5.0 (Windows NT 10.0; Win64; x64) AppleWebKit/537.36 (KHTML, like Gecko) Chrome/116.0.0.0 Safari/537.36" version="21.6.8" etag="fl5a_5nU2JDfAa_juDpz" type="github">
  <diagram name="페이지-1" id="7knFiorcexHhS7UFVXbx">
    <mxGraphModel>
      <root>
        <mxCell id="0" />
        <mxCell id="1" parent="0" />
      </root>
    </mxGraphModel>
  </diagram>
</mxfile>
